<svg width="18" height="18" viewBox="0 0 18 18" fill="none" xmlns="http://www.w3.org/2000/svg">
<rect width="18" height="18" fill="white" fill-opacity="0.01"/>
<path fill-rule="evenodd" clip-rule="evenodd" d="M8.48514 0.780289C8.00869 0.780289 7.59573 1.11012 7.49038 1.57478L7.20468 2.83497C6.74988 2.96723 6.31602 3.14836 5.90923 3.37216L4.81602 2.68302C4.41298 2.42896 3.88774 2.48775 3.55084 2.82464L2.82353 3.55196C2.48664 3.88884 2.42784 4.41408 2.68192 4.81713L3.3713 5.91074C3.14768 6.3174 2.96672 6.75113 2.83459 7.20578L1.57451 7.49145C1.10986 7.59678 0.780029 8.00976 0.780029 8.4862V9.51477C0.780029 9.99122 1.10986 10.4042 1.57451 10.5095L2.83474 10.7952C2.96695 11.25 3.14802 11.6838 3.37175 12.0906L2.68248 13.184C2.4284 13.587 2.4872 14.1122 2.82409 14.4492L3.55141 15.1765C3.8883 15.5134 4.41354 15.5722 4.81659 15.3181L5.91007 14.6288C6.31661 14.8524 6.75019 15.0334 7.20468 15.1655L7.49038 16.4257C7.59573 16.8904 8.00869 17.2202 8.48514 17.2202H9.51371C9.99014 17.2202 10.4031 16.8904 10.5085 16.4257L10.7941 15.166C11.2489 15.0338 11.6829 14.8528 12.0898 14.6291L13.1832 15.3184C13.5862 15.5724 14.1114 15.5136 14.4484 15.1768L15.1757 14.4494C15.5125 14.1125 15.5713 13.5872 15.3173 13.1843L14.6282 12.0912C14.8522 11.6843 15.0334 11.2502 15.1656 10.7952L16.4255 10.5095C16.8901 10.4042 17.22 9.99122 17.22 9.51477V8.4862C17.22 8.00976 16.8901 7.59678 16.4255 7.49145L15.1657 7.20586C15.0336 6.75094 14.8525 6.31697 14.6287 5.91009L15.3178 4.81689C15.5719 4.41384 15.5131 3.8886 15.1762 3.5517L14.4488 2.8244C14.112 2.48751 13.5868 2.42871 13.1837 2.68278L12.0906 3.37187C11.6835 3.14794 11.2492 2.96675 10.7941 2.83451L10.5085 1.57478C10.4031 1.11012 9.99014 0.780289 9.51371 0.780289H8.48514ZM5.90464 4.57502C6.53669 4.13207 7.26798 3.82109 8.05852 3.68207L8.48514 1.80029H9.51371L9.94026 3.6818C10.7312 3.82065 11.4629 4.13163 12.0953 4.57469L13.7276 3.54564L14.455 4.27295L13.4258 5.90541C13.8688 6.53758 14.1797 7.269 14.3185 8.05966L16.2 8.4862V9.51477L14.3184 9.94133C14.1794 10.7321 13.8684 11.4636 13.4254 12.0958L14.4544 13.7282L13.727 14.4554L12.0944 13.4263C11.4623 13.8691 10.7309 14.1799 9.94026 14.3188L9.51371 16.2002H8.48514L8.05852 14.3184C7.26828 14.1794 6.53727 13.8686 5.90539 13.426L4.27266 14.4552L3.54534 13.7279L4.57456 12.0953C4.13172 11.4632 3.82084 10.7319 3.6819 9.9414L1.80002 9.51477V8.4862L3.68182 8.05959C3.82066 7.26918 4.1314 6.538 4.57405 5.90598L3.54478 4.2732L4.2721 3.5459L5.90464 4.57502ZM10.83 9.0001C10.83 10.0107 10.0107 10.83 9.00006 10.83C7.98943 10.83 7.17016 10.0107 7.17016 9.0001C7.17016 7.98947 7.98943 7.1702 9.00006 7.1702C10.0107 7.1702 10.83 7.98947 10.83 9.0001ZM11.91 9.0001C11.91 10.6072 10.6071 11.91 9.00006 11.91C7.39296 11.91 6.09016 10.6072 6.09016 9.0001C6.09016 7.39301 7.39296 6.0902 9.00006 6.0902C10.6071 6.0902 11.91 7.39301 11.91 9.0001Z" fill="#E9BD72" fill-opacity="0.72549"/>
</svg>
